<mxfile host="app.diagrams.net" agent="Mozilla/5.0 (Windows NT 10.0; Win64; x64) AppleWebKit/537.36 (KHTML, like Gecko) Chrome/127.0.0.0 Safari/537.36" version="24.7.7">
  <diagram name="Page-1" id="qQ7DsbIM9hlWJnn8LUNf">
    <mxGraphModel dx="989" dy="580" grid="0" gridSize="10" guides="1" tooltips="1" connect="1" arrows="1" fold="1" page="0" pageScale="1" pageWidth="850" pageHeight="1100" math="0" shadow="0">
      <root>
        <mxCell id="0" />
        <mxCell id="1" parent="0" />
        <mxCell id="nuV70_mkJVLdaZoXGtgN-2" value="Persistence" style="shape=folder;fontStyle=1;tabWidth=110;tabHeight=30;tabPosition=left;html=1;boundedLbl=1;labelInHeader=1;container=1;collapsible=0;whiteSpace=wrap;fillColor=#fff2cc;gradientColor=#ffd966;strokeColor=#d6b656;" vertex="1" parent="1">
          <mxGeometry x="491" y="489.5" width="144" height="85" as="geometry" />
        </mxCell>
        <mxCell id="nuV70_mkJVLdaZoXGtgN-3" value="&lt;div style=&quot;&quot;&gt;&lt;ul&gt;&lt;li&gt;idata_access.py&lt;/li&gt;&lt;li&gt;data_access.py&lt;/li&gt;&lt;/ul&gt;&lt;/div&gt;" style="html=1;strokeColor=none;resizeWidth=1;resizeHeight=1;fillColor=none;part=1;connectable=0;allowArrows=0;deletable=0;whiteSpace=wrap;align=left;" vertex="1" parent="nuV70_mkJVLdaZoXGtgN-2">
          <mxGeometry width="161" height="56" relative="1" as="geometry">
            <mxPoint x="-17" y="30" as="offset" />
          </mxGeometry>
        </mxCell>
        <mxCell id="nuV70_mkJVLdaZoXGtgN-13" style="edgeStyle=orthogonalEdgeStyle;rounded=0;orthogonalLoop=1;jettySize=auto;html=1;endArrow=open;endFill=0;endSize=10;dashed=1;dashPattern=8 8;" edge="1" parent="1" source="nuV70_mkJVLdaZoXGtgN-4" target="nuV70_mkJVLdaZoXGtgN-2">
          <mxGeometry relative="1" as="geometry" />
        </mxCell>
        <mxCell id="nuV70_mkJVLdaZoXGtgN-4" value="Model" style="shape=folder;fontStyle=1;tabWidth=110;tabHeight=30;tabPosition=left;html=1;boundedLbl=1;labelInHeader=1;container=1;collapsible=0;whiteSpace=wrap;fillColor=#fff2cc;gradientColor=#ffd966;strokeColor=#d6b656;" vertex="1" parent="1">
          <mxGeometry x="146" y="479" width="144" height="106" as="geometry" />
        </mxCell>
        <mxCell id="nuV70_mkJVLdaZoXGtgN-5" value="&lt;div style=&quot;&quot;&gt;&lt;ul&gt;&lt;li&gt;argparse_filter.py&lt;/li&gt;&lt;li&gt;argument.py&lt;/li&gt;&lt;li&gt;file_info.py&lt;/li&gt;&lt;li&gt;model.py&lt;/li&gt;&lt;li&gt;test_runner.py&lt;/li&gt;&lt;/ul&gt;&lt;/div&gt;" style="html=1;strokeColor=none;resizeWidth=1;resizeHeight=1;fillColor=none;part=1;connectable=0;allowArrows=0;deletable=0;whiteSpace=wrap;align=left;" vertex="1" parent="nuV70_mkJVLdaZoXGtgN-4">
          <mxGeometry width="161" height="77" relative="1" as="geometry">
            <mxPoint x="-17" y="30" as="offset" />
          </mxGeometry>
        </mxCell>
        <mxCell id="nuV70_mkJVLdaZoXGtgN-6" value="View" style="shape=folder;fontStyle=1;tabWidth=110;tabHeight=30;tabPosition=left;html=1;boundedLbl=1;labelInHeader=1;container=1;collapsible=0;whiteSpace=wrap;fillColor=#fff2cc;gradientColor=#ffd966;strokeColor=#d6b656;" vertex="1" parent="1">
          <mxGeometry x="146" y="270" width="180" height="106" as="geometry" />
        </mxCell>
        <mxCell id="nuV70_mkJVLdaZoXGtgN-7" value="&lt;div style=&quot;&quot;&gt;&lt;ul&gt;&lt;li&gt;main.py&lt;/li&gt;&lt;li&gt;runnable_config_screen.py&lt;/li&gt;&lt;li&gt;runner_screen.py&lt;/li&gt;&lt;li&gt;show_runnables_screen.py&lt;/li&gt;&lt;/ul&gt;&lt;/div&gt;" style="html=1;strokeColor=none;resizeWidth=1;resizeHeight=1;fillColor=none;part=1;connectable=0;allowArrows=0;deletable=0;whiteSpace=wrap;align=left;" vertex="1" parent="nuV70_mkJVLdaZoXGtgN-6">
          <mxGeometry width="201.24999999999997" height="77" relative="1" as="geometry">
            <mxPoint x="-17" y="30" as="offset" />
          </mxGeometry>
        </mxCell>
        <mxCell id="nuV70_mkJVLdaZoXGtgN-10" value="Style" style="shape=folder;fontStyle=1;tabWidth=110;tabHeight=30;tabPosition=left;html=1;boundedLbl=1;labelInHeader=1;container=1;collapsible=0;whiteSpace=wrap;fillColor=#fff2cc;gradientColor=#ffd966;strokeColor=#d6b656;" vertex="1" parent="1">
          <mxGeometry x="473" y="270" width="180" height="120" as="geometry" />
        </mxCell>
        <mxCell id="nuV70_mkJVLdaZoXGtgN-11" value="&lt;div style=&quot;&quot;&gt;&lt;ul&gt;&lt;li&gt;normal_text_button.py&lt;/li&gt;&lt;li&gt;normal_text_combo_box.py&lt;/li&gt;&lt;li&gt;normal_text_label.py&lt;/li&gt;&lt;li&gt;normal_text_line_edit.py&lt;/li&gt;&lt;li&gt;set_window_icon.py&lt;/li&gt;&lt;li&gt;title_text_label.py&lt;/li&gt;&lt;/ul&gt;&lt;/div&gt;" style="html=1;strokeColor=none;resizeWidth=1;resizeHeight=1;fillColor=none;part=1;connectable=0;allowArrows=0;deletable=0;whiteSpace=wrap;align=left;" vertex="1" parent="nuV70_mkJVLdaZoXGtgN-10">
          <mxGeometry width="201.24999999999997" height="87.16981132075472" relative="1" as="geometry">
            <mxPoint x="-17" y="30" as="offset" />
          </mxGeometry>
        </mxCell>
        <mxCell id="nuV70_mkJVLdaZoXGtgN-14" value="&amp;lt;&amp;lt;import&amp;gt;&amp;gt;" style="text;html=1;align=center;verticalAlign=middle;resizable=0;points=[];autosize=1;strokeColor=none;fillColor=none;" vertex="1" parent="1">
          <mxGeometry x="357" y="509" width="79" height="26" as="geometry" />
        </mxCell>
        <mxCell id="nuV70_mkJVLdaZoXGtgN-15" style="edgeStyle=orthogonalEdgeStyle;rounded=0;orthogonalLoop=1;jettySize=auto;html=1;endArrow=open;endFill=0;endSize=10;dashed=1;dashPattern=8 8;" edge="1" parent="1" source="nuV70_mkJVLdaZoXGtgN-6" target="nuV70_mkJVLdaZoXGtgN-4">
          <mxGeometry relative="1" as="geometry">
            <mxPoint x="300" y="542" as="sourcePoint" />
            <mxPoint x="501" y="542" as="targetPoint" />
            <Array as="points">
              <mxPoint x="218" y="402" />
              <mxPoint x="218" y="402" />
            </Array>
          </mxGeometry>
        </mxCell>
        <mxCell id="nuV70_mkJVLdaZoXGtgN-16" value="&amp;lt;&amp;lt;import&amp;gt;&amp;gt;" style="text;html=1;align=center;verticalAlign=middle;resizable=0;points=[];autosize=1;strokeColor=none;fillColor=none;" vertex="1" parent="1">
          <mxGeometry x="146" y="415" width="79" height="26" as="geometry" />
        </mxCell>
        <mxCell id="nuV70_mkJVLdaZoXGtgN-17" style="edgeStyle=orthogonalEdgeStyle;rounded=0;orthogonalLoop=1;jettySize=auto;html=1;endArrow=open;endFill=0;endSize=10;dashed=1;dashPattern=8 8;" edge="1" parent="1" source="nuV70_mkJVLdaZoXGtgN-6" target="nuV70_mkJVLdaZoXGtgN-10">
          <mxGeometry relative="1" as="geometry">
            <mxPoint x="228" y="386" as="sourcePoint" />
            <mxPoint x="228" y="489" as="targetPoint" />
            <Array as="points">
              <mxPoint x="361" y="330" />
              <mxPoint x="361" y="330" />
            </Array>
          </mxGeometry>
        </mxCell>
        <mxCell id="nuV70_mkJVLdaZoXGtgN-18" value="&amp;lt;&amp;lt;extend&amp;gt;&amp;gt;" style="text;html=1;align=center;verticalAlign=middle;resizable=0;points=[];autosize=1;strokeColor=none;fillColor=none;" vertex="1" parent="1">
          <mxGeometry x="346" y="307" width="82" height="26" as="geometry" />
        </mxCell>
      </root>
    </mxGraphModel>
  </diagram>
</mxfile>
